<?xml version="1.0" encoding="iso-8859-1"?>
<!-- Generator: Adobe Illustrator 19.0.0, SVG Export Plug-In . SVG Version: 6.00 Build 0)  -->
<svg xmlns="http://www.w3.org/2000/svg" xmlns:xlink="http://www.w3.org/1999/xlink" version="1.1" id="Capa_1" x="0px" y="0px" viewBox="0 0 512 512" style="enable-background:new 0 0 512 512;" xml:space="preserve" width="512px" height="512px">
<g>
	<g>
		<path d="M448.741,101.431l-22.228-6.898c-3.956-1.228-8.159,0.984-9.386,4.94s0.984,8.158,4.94,9.386l16.364,5.078    c-0.227,2.12-0.478,4.21-0.724,6.307h-30.776c-6.287,0-12.196,2.448-16.64,6.892l-14.658,14.658    c-1.611,1.61-3.753,2.498-6.033,2.498h-57.488c-0.285,0-0.516-0.231-0.516-0.516V74.573l78.47,24.353    c0.74,0.229,1.489,0.339,2.226,0.339c3.199,0,6.163-2.063,7.161-5.279c1.228-3.956-0.984-8.158-4.94-9.386l-136.29-42.298    c-1.506-0.466-3.046-0.433-4.445,0.003l-0.001-0.002L63.256,101.431c-3.398,1.055-5.588,4.353-5.241,7.894    c4.551,46.515,19.591,137.29,69.181,222.625c1.392,2.396,3.907,3.732,6.491,3.732c1.279,0,2.576-0.327,3.762-1.017    c3.581-2.081,4.797-6.672,2.716-10.253c-20.542-35.348-34.971-71.688-45.122-105.267l36.628-36.627    c7.473-7.473,11.588-17.408,11.588-27.977V92.308l33.097-10.271v5.625c0,12.976,10.557,23.532,23.532,23.532    s23.532-10.557,23.532-23.532V67.43L256,57.319l0.516,0.16v63.622c0,2.278-0.888,4.421-2.499,6.032l-22.673,22.673    c-1.612,1.612-3.754,2.5-6.033,2.5h-19.156c-3.139-9.308-11.946-16.032-22.3-16.032c-12.976,0-23.532,10.557-23.532,23.532    c0,12.975,10.557,23.532,23.532,23.532c10.353,0,19.16-6.724,22.3-16.032h19.156c6.285,0,12.195-2.448,16.64-6.893l22.673-22.673    c4.445-4.445,6.893-10.354,6.893-16.64V62.134l25.081,7.784v73.856c0,8.556,6.96,15.516,15.516,15.516h57.488    c6.287,0,12.196-2.448,16.64-6.892L400.9,137.74c1.611-1.61,3.753-2.498,6.033-2.498h28.841    c-2.431,17.184-5.476,33.551-9.045,49.129H294.332c-3.139-9.308-11.946-16.032-22.3-16.032c-12.976,0-23.532,10.557-23.532,23.532    c0,12.975,10.557,23.532,23.532,23.532c10.353,0,19.16-6.724,22.3-16.032h128.733c-2.229,8.61-4.614,16.971-7.146,25.08h-97.165    c-6.286,0-12.195,2.448-16.64,6.893l-22.673,22.673c-1.612,1.612-3.754,2.5-6.033,2.5h-27.172    c-3.139-9.309-11.946-16.033-22.3-16.033c-12.976,0-23.532,10.557-23.532,23.533s10.557,23.532,23.532,23.532    c10.353,0,19.16-6.724,22.3-16.032h27.173c6.285,0,12.195-2.448,16.64-6.893l22.673-22.673c1.612-1.612,3.755-2.5,6.034-2.5    h92.226c-3.001,8.658-6.164,17.015-9.465,25.081h-66.729c-6.285,0-12.194,2.447-16.64,6.892l-46.721,46.722    c-4.445,4.445-6.893,10.354-6.893,16.641v25.424c0,17.965-14.616,32.58-32.581,32.58H190.17    c-5.048-5.504-9.947-11.199-14.707-17.064h32.44c8.556,0,15.516-6.96,15.516-15.516v-25.424c0-6.286-2.448-12.195-6.893-16.641    l-38.705-38.705c-1.611-1.611-2.499-3.754-2.499-6.033v-27.172c9.308-3.139,16.032-11.946,16.032-22.3    c0-12.976-10.557-23.532-23.532-23.532s-23.532,10.557-23.532,23.532c0,10.353,6.724,19.16,16.032,22.3v27.172    c0,6.286,2.448,12.195,6.893,16.641l38.705,38.705c1.611,1.611,2.499,3.754,2.499,6.033v25.424c0,0.284-0.231,0.516-0.516,0.516    h-44.015c-2.007-2.74-3.993-5.504-5.94-8.313c-2.36-3.403-7.032-4.25-10.437-1.891c-3.404,2.36-4.25,7.033-1.89,10.438    c29.259,42.202,65.04,76.95,106.348,103.278c1.23,0.784,2.63,1.176,4.031,1.176c1.401,0,2.802-0.392,4.031-1.176    c66.59-42.442,117.815-105.599,152.25-187.715c28.758-68.577,38.471-134.191,41.701-167.199    C454.329,105.784,452.139,102.486,448.741,101.431z M128.258,154.541c0,6.562-2.555,12.73-7.195,17.369l-30.736,30.736    c-9.456-35.081-14.295-66.231-16.755-88.711l54.686-16.971V154.541z M208.419,87.661c0,4.705-3.828,8.532-8.532,8.532    s-8.532-3.827-8.532-8.532v-10.28l17.064-5.296V87.661z M183.855,168.339c-4.705,0-8.532-3.827-8.532-8.532    s3.828-8.532,8.532-8.532c4.704,0,8.532,3.827,8.532,8.532S188.56,168.339,183.855,168.339z M272.032,200.403    c-4.705,0-8.532-3.827-8.532-8.532c0-4.705,3.828-8.532,8.532-8.532c4.704,0,8.532,3.827,8.532,8.532    C280.564,196.576,276.737,200.403,272.032,200.403z M223.936,272.549c-4.705,0-8.532-3.827-8.532-8.532s3.828-8.533,8.532-8.533    c4.704,0,8.532,3.828,8.532,8.533S228.64,272.549,223.936,272.549z M167.823,232.467c-4.704,0-8.532-3.827-8.532-8.532    s3.827-8.532,8.532-8.532s8.532,3.827,8.532,8.532S172.527,232.467,167.823,232.467z M255.994,448.975    c-18.263-12.004-35.364-25.775-51.234-41.185h27.192c26.236,0,47.581-21.345,47.581-47.58v-25.424    c0-2.279,0.888-4.422,2.499-6.033l46.72-46.722c1.612-1.611,3.756-2.499,6.035-2.499h60.283    C352.161,374.819,290.5,426.155,255.994,448.975z" fill="#FFFFFF"/>
	</g>
</g>
<g>
	<g>
		<path d="M490.691,72.482L258.223,0.337c-1.448-0.449-2.998-0.449-4.446,0L21.309,72.482c-3.138,0.974-5.277,3.877-5.277,7.163    c0,3.076,0.334,76.365,29.42,166.631c17.108,53.095,40.675,100.899,70.046,142.086c36.811,51.619,82.863,92.903,136.879,122.704    c1.127,0.622,2.375,0.934,3.623,0.934c1.248,0,2.496-0.312,3.623-0.934c54.016-29.801,100.068-71.085,136.879-122.704    c29.371-41.187,52.938-88.991,70.046-142.086c29.085-90.266,29.42-163.555,29.42-166.631    C495.968,76.359,493.829,73.456,490.691,72.482z M452.271,241.676c-16.635,51.625-39.507,98.048-67.981,137.978    c-34.67,48.615-77.818,87.712-128.29,116.255c-50.396-28.499-93.487-67.519-128.129-116.032    c-28.466-39.864-51.345-86.213-67.999-137.758c-24.005-74.296-28.033-138.32-28.706-156.99L256,15.353L480.836,85.13    C480.173,103.748,476.185,167.461,452.271,241.676z" fill="#FFFFFF"/>
	</g>
</g>
<g>
</g>
<g>
</g>
<g>
</g>
<g>
</g>
<g>
</g>
<g>
</g>
<g>
</g>
<g>
</g>
<g>
</g>
<g>
</g>
<g>
</g>
<g>
</g>
<g>
</g>
<g>
</g>
<g>
</g>
</svg>
