<?xml version="1.0" encoding="utf-8"?>
<svg version="1.1" xmlns="http://www.w3.org/2000/svg" xmlns:xlink="http://www.w3.org/1999/xlink" height="14.285714285714675" width="20">
  <defs>
    <path id="path-0" opacity="1" d="M15.836017380524122,12.380952380952355 C15.74964419872962,12.380952380952355 15.664152375933025,12.348381425490441 15.594525015098682,12.279517119656685 L11.539392265746667,8.263053011839153 C11.398374826082176,8.120671406534221 11.391323954098953,7.888021724663419 11.521765085788607,7.735403533356173 C11.656613012467776,7.586507736958859 11.880478197935155,7.579062947138995 12.021495637599646,7.721444552443924 L16.08015382294327,11.737908660261457 C16.22117126260776,11.879359666838905 16.228222134590986,12.115731743619639 16.094255566909723,12.264627540016953 C16.025509565073282,12.341867234398059 15.932085511295556,12.380952380952355 15.836017380524122,12.380952380952355Z"/>
    <path id="path-1" opacity="1" d="M4.1644679409917,12.380952380952355 C4.067592954056991,12.380952380952355 3.975121375619313,12.341867234398059 3.90642820306561,12.264627540016953 C3.7716839030564238,12.115731743619639 3.7787293566516755,11.879359666838905 3.9196384285567074,11.737908660261457 L7.976058336022807,7.721444552443924 C8.120490134725465,7.579062947138995 8.344183286374701,7.586507736958859 8.474524177886856,7.735403533356173 C8.609268477896043,7.888021724663419 8.602223024300791,8.120671406534221 8.46131395239576,8.263053011839153 L4.4048940449296605,12.279517119656685 C4.336200872375957,12.348381425490441 4.249894065834125,12.380952380952355 4.1644679409917,12.380952380952355Z"/>
    <path id="path-2" opacity="1" d="M18.387681889636724,0.6487983865089291 C18.922971502277505,0.6487983865089291 19.35426659679956,1.0853805716877787 19.35426659679956,1.6199710025191507 L19.35426659679956,12.665743283195297 C19.35426659679956,13.203573656031608 18.922971502277505,13.636915899205405 18.387681889636724,13.636915899205405 L1.6123181103630486,13.636915899205405 C1.0802531339434154,13.636915899205405 0.6457334032004383,13.203573656031608 0.6457334032004383,12.665743283195297 L0.6457334032004383,1.6199710025191507 C0.6457334032004383,1.0853805716877787 1.0802531339434154,0.6487983865089291 1.6123181103630486,0.6487983865089291 L18.387681889636724,0.6487983865089291ZM1.612318110363276,0 C0.7239308315531616,0 0,0.7281769656323149 0,1.619971002519037 L0,12.665743283195184 C0,13.56158724758825 0.7239308315531616,14.285714285714334 1.612318110363276,14.285714285714334 L18.387681889636724,14.285714285714334 C19.275263009391665,14.285714285714334 20,13.56158724758825 20,12.665743283195184 L20,1.619971002519037 C20,0.7281769656323149 19.275263009391665,0 18.387681889636724,0 L1.612318110363276,0Z"/>
    <path id="path-3" opacity="1" d="M9.529988316283088,8.571428571428587 C9.10081002970909,8.571428571428587 8.674840552754336,8.439848671919497 8.35235518602023,8.176688872901316 L0.11052767898985247,1.477328193918567 C-0.024242325018430932,1.3696719125020393 -0.03707756349541031,1.1797781938923277 0.07924178520221524,1.0541791989063778 C0.19556113389984078,0.928580203920428 0.3985183423170771,0.9196088471357169 0.5332883463253605,1.0250222893560694 L8.771907043736492,7.724382968338816 C9.182634674999834,8.057070782438505 9.874935350351908,8.057070782438505 10.285662981615248,7.724382968338816 L18.51385304776384,1.0362364853369557 C18.64862305177212,0.928580203920428 18.849173652974923,0.9397943999013169 18.96870181129179,1.0653933948872667 C19.084218957584607,1.1909923898732164 19.072185921512443,1.377895656221357 18.937415917504154,1.4862995507032783 L10.708423648950756,8.173698420639745 C10.382729472597404,8.439848671919497 9.956759995642651,8.571428571428587 9.529988316283088,8.571428571428587Z"/>
  </defs>
  <g opacity="1">
    <g opacity="1">
      <use xlink:href="#path-0" fill="rgb(255,255,255)" fill-opacity="1"/>
    </g>
    <g opacity="1">
      <use xlink:href="#path-1" fill="rgb(255,255,255)" fill-opacity="1"/>
    </g>
    <g opacity="1">
      <use xlink:href="#path-2" fill="rgb(255,255,255)" fill-opacity="1"/>
    </g>
    <g opacity="1">
      <use xlink:href="#path-3" fill="rgb(255,255,255)" fill-opacity="1"/>
    </g>
  </g>
</svg>