<svg xmlns="http://www.w3.org/2000/svg" xmlns:xlink="http://www.w3.org/1999/xlink" version="1.1" style="" xml:space="preserve" width="46.792" height="46.792"><rect id="backgroundrect" width="100%" height="100%" x="0" y="0" fill="none" stroke="none"/>































<g class="currentLayer" style=""><title>Layer 1</title><g id="svg_1" class="selected">
	<g id="svg_2">
		<path d="M20.617000579833984,11.389063835144043 c-0.06300000101327896,-0.10400000214576721 -0.13600000739097595,-0.20200000703334808 -0.2070000022649765,-0.296999990940094 c-0.2370000034570694,-0.3109999895095825 -0.5189999938011169,-0.5690000057220459 -0.8360000252723694,-0.777999997138977 c-0.5370000004768372,-0.35199999809265137 -1.1829999685287476,-0.5569999814033508 -1.8380000591278076,-0.5569999814033508 c-0.5429999828338623,0 -0.8220000267028809,0.06599999964237213 -1.2120000123977661,0.2240000069141388 c-0.4000000059604645,0.1589999943971634 -0.8270000219345093,0.3779999911785126 -1.2120000123977661,0.7850000262260437 c-0.38199999928474426,0.4020000100135803 -0.6100000143051147,0.8140000104904175 -0.7699999809265137,1.2410000562667847 c-0.32199999690055847,0.8600000143051147 -0.2840000092983246,1.9889999628067017 0.27900001406669617,2.8929998874664307 c1.1759999990463257,1.899999976158142 1.871000051498413,4.053999900817871 2.125999927520752,6.271999835968018 c0.0689999982714653,0.5910000205039978 0.1120000034570694,1.184999942779541 0.1120000034570694,1.784999966621399 c0,2.8550000190734863 -0.7789999842643738,5.646999835968018 -2.250999927520752,8.071999549865723 c-0.052000001072883606,0.0860000029206276 -0.09799999743700027,0.1720000058412552 -0.14100000262260437,0.25999999046325684 c-0.28700000047683716,0.578000009059906 -0.39100000262260437,1.2029999494552612 -0.3330000042915344,1.812000036239624 c0.09799999743700027,1.031000018119812 0.6589999794960022,2.00600004196167 1.6100000143051147,2.5840001106262207 c0.2460000067949295,0.1459999978542328 0.5049999952316284,0.257999986410141 0.7749999761581421,0.34200000762939453 c0.3190000057220459,0.09799999743700027 0.6480000019073486,0.15000000596046448 0.9819999933242798,0.15000000596046448 c1.194000005722046,0 2.2799999713897705,-0.609000027179718 2.9000000953674316,-1.628999948501587 c1.8639999628067017,-3.072000026702881 2.9539999961853027,-6.548999786376953 3.187000036239624,-10.133999824523926 c0.03200000151991844,-0.48399999737739563 0.04699999839067459,-0.9700000286102295 0.04699999839067459,-1.4579999446868896 C23.834999084472656,18.87006378173828 22.722999572753906,14.870063781738281 20.617000579833984,11.389063835144043 z" fill="#FFFFFF" id="svg_3"/>
	</g>
</g><g id="svg_7" class="selected">
	<g id="svg_8">
		<path d="M16.466999053955078,21.010064125061035 c-1.9390000104904175,-2.674999952316284 -4.642000198364258,-5.01800012588501 -7.699999809265137,-6.656000137329102 c-0.46700000762939453,-0.24899999797344208 -0.9900000095367432,-0.3799999952316284 -1.5160000324249268,-0.3799999952316284 c-1.1929999589920044,0 -2.2799999713897705,0.6499999761581421 -2.8420000076293945,1.6990000009536743 c-0.8389999866485596,1.5679999589920044 -0.24699999392032623,3.5199999809265137 1.3179999589920044,4.359000205993652 c4.718999862670898,2.5239999294281006 7.763000011444092,7.340000152587891 8.12399959564209,12.904999732971191 v-0.004000000189989805 c-0.05400000140070915,-0.6209999918937683 0.04699999839067459,-1.2289999723434448 0.3330000042915344,-1.8049999475479126 c0.039000000804662704,-0.0820000022649765 0.0860000029206276,-0.1679999977350235 0.14100000262260437,-0.25999999046325684 c1.4739999771118164,-2.424999952316284 2.250999927520752,-5.2170000076293945 2.250999927520752,-8.074000358581543 C16.576000213623047,22.195063591003418 16.534000396728516,21.60106372833252 16.466999053955078,21.010064125061035 z" fill="#FFFFFF" id="svg_9"/>
	</g>
</g><g id="svg_22" class="selected">
	<g id="svg_23">
		<path d="M36.83100128173828,15.11206340789795 C36.26300048828125,12.621063709259033 35.417999267578125,10.189063549041748 34.31999969482422,7.88106369972229 C33.73099899291992,6.6480637192726135 32.470001220703125,5.8510637283325195 31.10300064086914,5.8510637283325195 c-0.5260000228881836,0 -1.0440000295639038,0.11599999666213989 -1.5240000486373901,0.3449999988079071 c-1.7710000276565552,0.8429999947547913 -2.5250000953674316,2.9760000705718994 -1.6859999895095825,4.742000102996826 c1.809000015258789,3.811000108718872 2.6989998817443848,7.836999893188477 2.6989998817443848,12.019000053405762 c0,4.181000232696533 -0.8960000276565552,8.20300006866455 -2.6700000762939453,11.951000213623047 c-0.026000000536441803,0.05700000002980232 -0.335999995470047,0.7210000157356262 -0.335999995470047,1.4859999418258667 c-0.0020000000949949026,0.2150000035762787 0.020999999716877937,0.5370000004768372 0.09000000357627869,0.8240000009536743 c0.23000000417232513,1.0080000162124634 0.8889999985694885,1.9220000505447388 1.940999984741211,2.4260001182556152 c0.4830000102519989,0.2290000021457672 0.9909999966621399,0.34200000762939453 1.5210000276565552,0.34200000762939453 c1.2979999780654907,0 2.5,-0.7170000076293945 3.119999885559082,-1.8459999561309814 c0.7089999914169312,-1.3320000171661377 1.4270000457763672,-3.0820000171661377 2.0510001182556152,-5.334000110626221 c0.19699999690055847,-0.6800000071525574 0.3630000054836273,-1.315999984741211 0.5199999809265137,-2.00600004196167 c0.5799999833106995,-2.5429999828338623 0.8830000162124634,-5.165999889373779 0.8830000162124634,-7.84499979019165 C37.70899963378906,20.30906391143799 37.409000396728516,17.650063514709473 36.83100128173828,15.11206340789795 z" fill="#FFFFFF" id="svg_24"/>
	</g>
</g><g id="svg_43" class="selected">
	<g id="svg_44">
		<path d="M29.871999740600586,19.808063507080078 c-2.319999933242798,-3.7109999656677246 -5.683000087738037,-7.0289998054504395 -9.618000030517578,-9.46500015258789 c0.023000000044703484,0.014999999664723873 0.04600000008940697,0.029999999329447746 0.04899999871850014,0.032999999821186066 c0.27300000190734863,0.19699999690055847 0.503000020980835,0.40299999713897705 0.7440000176429749,0.7160000205039978 c0.05900000035762787,0.07599999755620956 0.14100000262260437,0.1850000023841858 0.20900000631809235,0.296999990940094 c2.1059999465942383,3.4809999465942383 3.2200000286102295,7.480999946594238 3.2200000286102295,11.567000389099121 c0,0.4860000014305115 -0.017000000923871994,0.9739999771118164 -0.04699999839067459,1.4579999446868896 c1.687999963760376,3.2160000801086426 2.609999895095825,6.870999813079834 2.609999895095825,10.704999923706055 c0,0.3050000071525574 0.004000000189989805,0.7950000166893005 -0.0020000000949949026,1.1519999504089355 c0.017999999225139618,-0.4000000059604645 0.11699999868869781,-0.8220000267028809 0.2619999945163727,-1.1929999589920044 c0.02199999988079071,-0.05900000035762787 0.04600000008940697,-0.11500000208616257 0.07199999690055847,-0.17000000178813934 c1.7719999551773071,-3.747999906539917 2.6700000762939453,-7.769999980926514 2.6700000762939453,-11.951000213623047 C30.04199981689453,21.51906394958496 29.94499969482422,20.4710636138916 29.871999740600586,19.808063507080078 z" fill="#FFFFFF" id="svg_45"/>
	</g>
</g><g id="svg_49" class="selected">
</g><g id="svg_50" class="selected">
</g><g id="svg_51" class="selected">
</g><g id="svg_52" class="selected">
</g><g id="svg_53" class="selected">
</g><g id="svg_54" class="selected">
</g><g id="svg_55" class="selected">
</g><g id="svg_56" class="selected">
</g><g id="svg_57" class="selected">
</g><g id="svg_58" class="selected">
</g><g id="svg_59" class="selected">
</g><g id="svg_60" class="selected">
</g><g id="svg_61" class="selected">
</g><g id="svg_62" class="selected">
</g><g id="svg_63" class="selected">
</g></g></svg>