<?xml version="1.0" encoding="utf-8"?>
<svg version="1.1" xmlns="http://www.w3.org/2000/svg" xmlns:xlink="http://www.w3.org/1999/xlink" height="19.865122807017542" width="19.37529824561352">
  <defs>
    <rect id="rect-0" opacity="1" x="0" y="-3.410605131648481e-13" width="19.37529824561409" height="19.86512280701743"/>
    <path id="path-1" opacity="1" d="M4.1101754385965705,5.239578947368045 C5.872000000000071,5.239578947368045 7.305122807017597,6.672982456139948 7.305122807017597,8.434526315789071 L7.305122807017597,13.286456140350538 L6.311649122807012,13.286456140350538 L6.311649122807012,8.7014736842101 C6.311649122807012,8.46905263157862 6.123368421052646,8.28042105263114 5.890596491228052,8.28042105263114 C5.658175438596572,8.28042105263114 5.469543859649207,8.46905263157862 5.469543859649207,8.7014736842101 L5.469543859649207,13.286456140350538 L4.494807017543849,13.286456140350538 L4.494807017543849,8.7014736842101 C4.494807017543849,8.46905263157862 4.306175438596483,8.28042105263114 4.0737543859648895,8.28042105263114 C3.8409824561404093,8.28042105263114 3.652701754386044,8.46905263157862 3.652701754386044,8.7014736842101 L3.652701754386044,13.286456140350538 L2.6776140350877995,13.286456140350538 L2.6776140350877995,8.7014736842101 C2.6776140350877995,8.46905263157862 2.489052631578943,8.28042105263114 2.25656140350884,8.28042105263114 C2.0241403508772464,8.28042105263114 1.8355087719298808,8.46905263157862 1.8355087719298808,8.7014736842101 L1.8355087719298808,13.286456140350538 L0.8421052631579187,13.286456140350538 L0.8421052631579187,8.434526315789071 C0.8421052631579187,6.672982456139948 2.2755087719298217,5.239578947368045 4.037263157894813,5.239578947368045 L4.1101754385965705,5.239578947368045ZM4.036982456140322,4.3974736842101265 C1.8111578947368798,4.3974736842101265 0,6.208631578947006 0,8.434526315789071 L0,13.707508771929383 C0,13.9399999999996 0.1886315789473656,14.128561403508343 0.42105263157895934,14.128561403508343 L10.27031578947367,14.128561403508343 L10.27031578947367,19.02301754385917 L9.104982456140306,19.02301754385917 L9.104982456140306,15.54659649122766 C9.104982456140306,15.31389473684169 8.916421052631563,15.125543859648701 8.68392982456146,15.125543859648701 C8.451508771929866,15.125543859648701 8.2628771929825,15.31389473684169 8.2628771929825,15.54659649122766 L8.2628771929825,19.444070175438128 C8.2628771929825,19.676561403508344 8.451508771929866,19.865122807017087 8.68392982456146,19.865122807017087 L10.69136842105263,19.865122807017087 C10.923789473684224,19.865122807017087 11.11242105263159,19.676561403508344 11.11242105263159,19.444070175438128 L11.11242105263159,14.128561403508343 L18.95424561403513,14.128561403508343 C19.186666666666724,14.128561403508343 19.37529824561409,13.9399999999996 19.37529824561409,13.707508771929383 L19.37529824561409,8.434526315789071 C19.37529824561409,6.208631578947006 17.564421052631587,4.3974736842101265 15.338245614035145,4.3974736842101265 L12.663087719298233,4.3974736842101265 C12.430666666666639,4.3974736842101265 12.242035087719273,4.586105263157492 12.242035087719273,4.818526315789086 C12.242035087719273,5.05129824561368 12.430666666666639,5.239578947368045 12.663087719298233,5.239578947368045 L15.338245614035145,5.239578947368045 C17.100070175438645,5.239578947368045 18.53319298245617,6.672982456139948 18.53319298245617,8.434526315789071 L18.53319298245617,13.286456140350424 L8.147228070175402,13.286456140350424 L8.147228070175402,8.434526315789071 C8.147228070175402,7.1354385964908715 7.529894736842152,5.978596491227677 6.5737543859648895,5.239578947368045 L9.417192982456186,5.239578947368045 C9.649684210526289,5.239578947368045 9.838245614035145,5.05129824561368 9.838245614035145,4.818526315789086 C9.838245614035145,4.586105263157492 9.649684210526289,4.3974736842101265 9.417192982456186,4.3974736842101265 L4.036982456140322,4.3974736842101265Z"/>
    <path id="path-2" opacity="1" d="M10.586596491228079,7.906526315789165 C10.999438596491245,7.906526315789165 11.335228070175503,8.366166885430061 11.335228070175503,8.930895602027476 C11.335228070175503,9.496008553165893 10.999438596491245,9.955649122806676 10.586596491228079,9.955649122806676 C10.174035087719403,9.955649122806676 9.838245614035145,9.496008553165893 9.838245614035145,8.930895602027476 C9.838245614035145,8.366166885430061 10.174035087719403,7.906526315789165 10.586596491228079,7.906526315789165 L10.586596491228079,7.906526315789165ZM10.647228070175515,-3.410605131648481e-13 C10.414456140350921,-3.410605131648481e-13 10.226175438596556,0.18863157894702454 10.226175438596556,0.4210526315786183 L10.226175438596556,7.106105263157588 C9.522175438596491,7.270035087718952 8.996140350877226,7.9018947368417685 8.996140350877226,8.654877192982099 C8.996140350877226,9.532070175438207 9.709684210526348,10.245614035087328 10.586596491228079,10.245614035087328 C11.463789473684187,10.245614035087328 12.177333333333308,9.532070175438207 12.177333333333308,8.654877192982099 C12.177333333333308,7.945754385964619 11.71052631578948,7.343508771929464 11.068280701754475,7.139017543859268 L11.068280701754475,0.8421052631575776 L13.81494736842103,0.8421052631575776 L13.81494736842103,1.890666666666334 L11.722596491228046,1.890666666666334 C11.489824561403566,1.890666666666334 11.3015438596492,2.079228070175077 11.3015438596492,2.3117192982452934 C11.3015438596492,2.5444210526312645 11.489824561403566,2.7327719298242528 11.722596491228046,2.7327719298242528 L14.23599999999999,2.7327719298242528 C14.468771929824584,2.7327719298242528 14.65705263157895,2.5444210526312645 14.65705263157895,2.3117192982452934 L14.65705263157895,0.4210526315786183 C14.65705263157895,0.18863157894702454 14.468771929824584,-3.410605131648481e-13 14.23599999999999,-3.410605131648481e-13 L10.647228070175515,-3.410605131648481e-13Z"/>
  </defs>
  <g opacity="1">
    <g opacity="1">
      <use xlink:href="#path-1" fill="rgb(255,255,255)" fill-opacity="1"/>
    </g>
    <g opacity="1">
      <use xlink:href="#path-2" fill="rgb(255,255,255)" fill-opacity="1"/>
    </g>
  </g>
</svg>