<?xml version="1.0" encoding="iso-8859-1"?>
<!-- Generator: Adobe Illustrator 19.0.0, SVG Export Plug-In . SVG Version: 6.00 Build 0)  -->
<svg xmlns="http://www.w3.org/2000/svg" xmlns:xlink="http://www.w3.org/1999/xlink" version="1.1" id="Capa_1" x="0px" y="0px" viewBox="0 0 480 480" style="enable-background:new 0 0 480 480;" xml:space="preserve" width="512px" height="512px">
<g>
	<g>
		<path d="M440,0H40C17.944,0,0,17.944,0,40v248v32c0,22.056,17.944,40,40,40h134.416l-13.096,72h-31.432    c-9.152,0-17.376,5.08-21.472,13.264c-3.752,7.496-3.352,16.224,1.048,23.352c4.408,7.128,12.04,11.384,20.424,11.384h220.216    c8.384,0,16.016-4.256,20.424-11.384c4.4-7.128,4.8-15.856,1.048-23.352C367.488,437.08,359.256,432,350.112,432H318.68    l-13.096-72H440c22.056,0,40-17.944,40-40v-32V40C480,17.944,462.056,0,440,0z M312,448h38.112c3.056,0,5.8,1.696,7.16,4.424    c1.808,3.6,0.36,6.648-0.352,7.784c-0.712,1.136-2.776,3.792-6.808,3.792H129.888c-4.032,0-6.104-2.656-6.808-3.792    c-0.712-1.144-2.16-4.184-0.352-7.784c1.368-2.728,4.104-4.424,7.16-4.424H168h64c4.424,0,8-3.584,8-8c0-4.416-3.576-8-8-8    h-54.416l13.096-72h98.64l13.096,72H280c-4.424,0-8,3.584-8,8c0,4.416,3.576,8,8,8H312z M464,320c0,13.232-10.768,24-24,24H296    H184H40c-13.232,0-24-10.768-24-24v-24h448V320z M464,280H16V40c0-13.232,10.768-24,24-24h400c13.232,0,24,10.768,24,24V280z" fill="#FFFFFF"/>
	</g>
</g>
<g>
	<g>
		<path d="M256,312h-32c-4.424,0-8,3.584-8,8c0,4.416,3.576,8,8,8h32c4.424,0,8-3.584,8-8C264,315.584,260.424,312,256,312z" fill="#FFFFFF"/>
	</g>
</g>
<g>
	<g>
		<path d="M339.08,72.616l-96-40c-1.976-0.832-4.2-0.832-6.176,0.008L141.16,72.92c-2.952,1.248-4.88,4.128-4.896,7.336    c-0.024,4.552-0.032,111.96,48.152,160.384C199.832,256.144,218.528,264,240,264c101.44,0,103.944-176.432,104-183.936    C344.024,76.808,342.08,73.864,339.08,72.616z M240,248c-17.288,0-31.76-6.096-44.232-18.632    c-37.864-38.048-42.784-122.024-43.416-143.808l87.664-36.896l87.824,36.592C326.632,113.904,316.88,248,240,248z" fill="#FFFFFF"/>
	</g>
</g>
<g>
	<g>
		<path d="M240,88c-35.288,0-64,28.712-64,64c0,35.288,28.712,64,64,64c35.288,0,64-28.712,64-64C304,116.712,275.288,88,240,88z     M240,200c-26.472,0-48-21.528-48-48s21.528-48,48-48s48,21.528,48,48S266.472,200,240,200z" fill="#FFFFFF"/>
	</g>
</g>
<g>
	<g>
		<path d="M270.072,131.928c-3.336-2.872-8.392-2.496-11.28,0.856l-19.752,22.992l-7.84-8.952c-2.904-3.328-7.968-3.672-11.288-0.76    c-3.328,2.904-3.664,7.96-0.76,11.288l13.904,15.912c1.52,1.736,3.728,2.736,6.032,2.736c0.008,0,0.024,0,0.032,0    c2.32-0.008,4.52-1.024,6.04-2.792l25.768-30C273.8,139.856,273.424,134.808,270.072,131.928z" fill="#FFFFFF"/>
	</g>
</g>
<g>
	<g>
		<circle cx="56" cy="200" r="8" fill="#FFFFFF"/>
	</g>
</g>
<g>
	<g>
		<circle cx="88" cy="200" r="8" fill="#FFFFFF"/>
	</g>
</g>
<g>
	<g>
		<circle cx="120" cy="200" r="8" fill="#FFFFFF"/>
	</g>
</g>
<g>
	<g>
		<circle cx="360" cy="200" r="8" fill="#FFFFFF"/>
	</g>
</g>
<g>
	<g>
		<circle cx="392" cy="200" r="8" fill="#FFFFFF"/>
	</g>
</g>
<g>
	<g>
		<circle cx="424" cy="200" r="8" fill="#FFFFFF"/>
	</g>
</g>
<g>
</g>
<g>
</g>
<g>
</g>
<g>
</g>
<g>
</g>
<g>
</g>
<g>
</g>
<g>
</g>
<g>
</g>
<g>
</g>
<g>
</g>
<g>
</g>
<g>
</g>
<g>
</g>
<g>
</g>
</svg>
