<?xml version="1.0" encoding="utf-8"?>
<svg version="1.1" xmlns="http://www.w3.org/2000/svg" xmlns:xlink="http://www.w3.org/1999/xlink" height="15" width="20">
  <defs>
    <path id="path-0" opacity="1" d="M0,0 L19.99999999999996,0 L19.99999999999996,14.99999999999999 L0,14.99999999999999 L0,0Z"/>
    <mask id="mask-1" maskUnits="userSpaceOnUse" maskContentUnits="userSpaceOnUse">
      <rect opacity="1" x="0" y="0" width="20" height="15" fill="Black"/>
      <use xlink:href="#path-0" fill="White"/>
    </mask>
    <path id="path-2" opacity="1" d="M16.61311005870732,1.2363672107101138 L6.6124457437358615,7.632057779554771 L0.49267351153764594,5.625043654347451 L16.61311005870732,1.2363672107101138 L16.61311005870732,1.2363672107101138ZM6.882576477510952,8.898527033397158 L8.399304357136316,11.068486034633452 L6.422230419644507,12.5841650988732 L6.882576477510952,8.898527033397158 L6.882576477510952,8.898527033397158ZM17.8197494997155,1.255537196125374 L11.277091557940025,14.021497266198821 L7.131063454496825,8.092970907145968 L17.8197494997155,1.255537196125374 L17.8197494997155,1.255537196125374ZM18.668262713493277,0 C18.654755658939166,0 18.64119092990029,0.0007960853420172498 18.627644344488317,0.002403584310968654 C18.603503231146306,0.004070539564395403 18.578945891712237,0.00865466651157476 18.554388552278056,0.015322487525509132 L-0.7543398604045706,5.273316095860196 C-0.8958567317197321,5.312489544317373 -0.9949185416403452,5.43959488239625 -0.9999132547455929,5.587537161143928 C-1.0032430634823868,5.734229223451393 -0.9104246449433049,5.86591868847745 -0.7705726779965971,5.91301017438866 L6.293616557184464,8.229661237932532 L5.661369123279201,13.292204342795003 C5.645136305687174,13.425977501887928 5.710067576055394,13.556000011660558 5.8270271079364875,13.622678221800356 C5.877390465081021,13.652266677549846 5.936078344067596,13.666852536017927 5.993101318685717,13.666852536017927 C6.064692206527525,13.666852536017927 6.1362830943693325,13.643931901282372 6.194554747263851,13.598507370624588 L8.779735005318912,11.615664096593036 L11.04775098119103,14.858308803453042 C11.109768668914398,14.947907648328396 11.212160287571919,15.000000000000114 11.319546619334574,15.000000000000114 L11.342022828308131,15.000000000000114 C11.459398586281395,14.991665223732639 11.563455109307256,14.9233200583393 11.615483370820243,14.819135354995865 L18.962706348631627,0.482486697317313 C19.02430781026294,0.3653830907593374 19.008074992670913,0.22369189421226565 18.925246000342327,0.12117414612237098 C18.862284789133355,0.04237568494477273 18.766808759976243,0 18.668262713493277,0 L18.668262713493277,0Z"/>
  </defs>
  <g opacity="1">
    <g opacity="1"/>
    <g mask="url(#mask-1)">
      <g opacity="1">
        <use xlink:href="#path-2" fill="rgb(255,255,255)" fill-opacity="1"/>
      </g>
    </g>
  </g>
</svg>